<?xml version="1.0" encoding="utf-8"?>
<!-- Generator: Adobe Illustrator 16.0.3, SVG Export Plug-In . SVG Version: 6.00 Build 0)  -->
<!DOCTYPE svg PUBLIC "-//W3C//DTD SVG 1.1//EN" "http://www.w3.org/Graphics/SVG/1.1/DTD/svg11.dtd">
<svg version="1.1" id="Layer_1" xmlns="http://www.w3.org/2000/svg" xmlns:xlink="http://www.w3.org/1999/xlink" x="0px" y="0px"
viewBox="0 0 294 216.164" enable-background="new 0 0 294 216.164" xml:space="preserve">
<polygon fill="#C3132A" points="141.239,2.918 134.074,6.317 126.28,7.779 121.687,13.787 115.433,18.479 114.645,25.485 
	111.606,32.151 114.832,38.278 115.825,45.131 122.2,48.739 126.957,53.943 134.773,54.063 142.02,56.224 149.185,52.825 
	156.979,51.363 161.572,45.356 167.826,40.664 168.613,33.658 171.652,26.992 168.427,20.864 167.434,14.01 161.059,10.404 
	156.302,5.2 148.484,5.08 "/>
<g>
	<defs>
		<rect id="SVGID_1_" x="-2" y="2.918" width="291.955" height="216.163"/>
	</defs>
	<clipPath id="SVGID_2_">
		<use xlink:href="#SVGID_1_"  overflow="visible"/>
	</clipPath>
	<path clip-path="url(#SVGID_2_)" fill="#411312" d="M280.044,52.453c1.196-0.005,1.485,1.191,0.839,2.99
		c-1.593,4.437-8.516,12.73-19.09,17.207C266.804,62.689,275.134,52.474,280.044,52.453 M262.045,91.927
		c-5.508,0.024-5.477-5.724-2.893-12.919c0.215-0.601,0.431-1.2,0.646-1.8c14.948-2.341,26.267-13.886,29.323-22.4
		c1.98-5.518,0.537-9.821-5.449-9.795c-13.412,0.058-29.54,20.006-35.396,36.316c-4.047,11.274-3.182,20.851,7.235,20.805
		c11.735-0.052,22.201-12.551,33.829-28.287c0.258-0.721-2.032-1.668-2.75-1.665C277.646,84.435,269.109,91.897,262.045,91.927
		 M271.59,15.728c-5.373,14.632-21.425,34.7-31.331,45.64c11.481-22.323,27.849-48.259,31.081-48.272
		C271.939,13.092,272.193,14.049,271.59,15.728 M231.363,93.139c-2.754,0.012-3.646-2.499-0.762-10.534
		c1.379-3.838,3.417-8.518,5.867-13.677c6.9-5.897,19.143-17.687,29.693-33.418c2.531-3.725,7.984-12.249,10.525-19.325
		c2.195-6.117,2.207-11.146-4.02-11.119c-6.945,0.03-19.354,13.615-35.551,43.742c-7.305,13.683-12.875,25.203-16.019,33.958
		c-4.478,12.473-4.146,19.537,3.04,19.505c7.783-0.034,16.521-9.053,30.475-28.273l0.043-0.12c0.217-0.599-1.715-1.549-2.313-1.546
		C242.415,85.667,235.195,93.122,231.363,93.139 M191.619,92.953c-2.875,0.014-1.795-4.662,0.703-11.618
		c0.342,3.711,2.062,6.577,6.105,7.638C195.967,91.497,193.654,92.944,191.619,92.953 M212.677,64.601
		c-2.368,6.597-6.397,14.158-10.62,19.925c-6.309-1.41-6.676-8.713-4.178-15.669c2.713-7.556,8.691-14.886,14.081-14.91
		C215.072,53.934,215.046,58.004,212.677,64.601 M188.193,101.829c5.67-0.144,12.996-5.564,19.574-12.897
		c6.754-1.825,14.635-7.129,20.264-14.817c0.26-0.719-2.03-1.667-2.75-1.664c-4.633,6.247-9.028,9.499-13.181,11.074
		c3.81-5.286,7.237-11.168,9.175-16.565c4.436-12.353,4.738-20.855-3.883-20.818c-3.353,0.015-7.025,1.588-10.445,4.117l1.297-2.281
		c8.632-14.048,12.752-20.532,18.83-33.132l-8.621,0.038c-7.567,13.085-15.953,28.448-22.577,40.571
		c-5.284,9.724-9.711,18.724-12.38,26.159C179.104,93.846,179.332,101.868,188.193,101.829 M188.867,39.679
		c5.27-0.023,10.191-5.074,11.742-9.393c1.205-3.357,0.562-6.229-3.39-6.212c-5.269,0.023-10.233,5.194-11.784,9.512
		C184.273,36.825,185.035,39.695,188.867,39.679 M179.306,46.666c-5.136,8.645-17.251,27.736-22.03,41.049
		c-2.972,8.275-2.97,14.263,3.496,14.234c9.819-0.043,19.006-13.973,29.184-27.669l0.043-0.12c0.258-0.719-2.195-1.547-2.793-1.544
		c-10.221,13.815-16.584,20.549-19.697,20.562c-1.078,0.005-2.18-0.59-0.932-4.067c3.531-9.835,12-23.762,22.908-42.49
		L179.306,46.666z M117.712,73.039c-0.345,0.959,2.793,1.544,2.793,1.544c11.877-16.097,15.803-19.707,18.317-19.718
		c3.952-0.017-1.69,12.701-5.603,24.932c-6.54,8.89-11.935,15.26-14.929,15.272c-1.077,0.005-1.255-0.832-0.781-2.152
		c0.603-1.679,2.345-4.2,4.198-6.363l-5.596-2.73c-3.988,4.448-6.281,8.17-7.4,11.288c-1.723,4.798-0.601,7.667,4.069,7.646
		c5.149-0.022,11.546-6.517,18.066-14.688c-1.927,8.032-1.651,14.257,4.455,14.231c6.946-0.031,16.887-7.738,31.784-27.921
		c0.258-0.72-2.032-1.668-2.75-1.663c-10.513,14.295-17.354,21.03-21.785,21.05c-4.55,0.02-2.015-8.373,1.396-18.207
		c8.276-12.729,13.757-19.339,19.386-19.364c1.078-0.005,2.266,0.35,3.367,0.943l6.865-9.13c-1.399-1.432-3.1-2.022-4.777-2.016
		c-7.424,0.032-15.575,11.085-21.43,19.732c3.311-10.552,5.112-19.9-2.312-19.868c-6.227,0.027-14.634,10.123-27.291,27.062
		L117.712,73.039z M111.21,53.189c1.197-0.005,1.485,1.19,0.839,2.99c-1.593,4.438-8.516,12.73-19.09,17.207
		C97.97,63.426,106.3,53.21,111.21,53.189 M93.211,92.664c-5.508,0.024-5.477-5.724-2.893-12.92c0.215-0.599,0.43-1.199,0.645-1.799
		c14.948-2.34,26.267-13.885,29.324-22.4c1.981-5.517,0.537-9.821-5.45-9.796c-13.411,0.06-29.54,20.007-35.396,36.318
		c-4.048,11.274-3.182,20.849,7.236,20.804c11.735-0.051,22.2-12.55,33.828-28.288c0.259-0.719-2.031-1.667-2.75-1.664
		C108.813,85.171,100.276,92.633,93.211,92.664 M102.756,16.464c-5.373,14.633-21.425,34.699-31.331,45.64
		c11.482-22.322,27.848-48.259,31.081-48.273C103.104,13.829,103.359,14.785,102.756,16.464 M62.529,93.875
		c-2.755,0.013-3.646-2.499-0.761-10.533c1.378-3.839,3.416-8.518,5.867-13.678c6.899-5.897,19.142-17.686,29.692-33.419
		c2.533-3.723,7.985-12.249,10.525-19.325c2.196-6.115,2.209-11.146-4.018-11.117c-6.945,0.029-19.355,13.614-35.551,43.741
		c-7.304,13.684-12.875,25.203-16.018,33.958c-4.478,12.474-4.145,19.536,3.039,19.506c7.784-0.034,16.521-9.054,30.476-28.273
		l0.043-0.12c0.215-0.6-1.715-1.549-2.314-1.547C73.58,86.403,66.36,93.859,62.529,93.875 M46.184,52.156
		C51.76,41.953,57.01,31.992,62.304,21.91c0.915,0.116,1.992,0.111,3.07,0.106c5.987-0.026,13.372-1.615,20.516-9.19l-6.842-3.922
		c-3.877,4.807-8.647,7.104-15.113,7.131c-3.592,0.017-7.362-0.806-11.314-0.789c-15.207,0.067-23.633,10.881-27.035,20.355
		c-1.119,3.119-1.76,6.234-1.783,8.63l11.461-3.283c0.109-2.635,0.577-5.271,1.395-7.55c2.326-6.478,7.401-11.289,15.605-12.163
		L35.527,52.202l-7.664,0.034l-3.316,6.241l7.543-0.033c-7.715,14.164-15.799,28.688-23.653,43.571l10.537-0.046
		C27.9,85.764,35.693,71.72,42.867,58.397l9.101-0.039l3.316-6.242L46.184,52.156z"/>
	<path clip-path="url(#SVGID_2_)" fill="#FFFFFF" d="M164.133,20.412c0.287-0.051,0.443,0.119,0.359,0.596
		c-0.42,2.383-1.814,5.894-3.26,8.821c-0.028-0.722,0.064-1.596,0.22-2.48C162.01,24.182,163.461,20.53,164.133,20.412
		 M152.887,23.185c-1.438,4.113-3.031,8.583-3.578,11.682c-0.455,2.587-0.18,4.188,1.484,3.894c1.184-0.208,2.564-2.068,3.848-4.604
		c-0.303,2.429,0.119,3.904,1.813,3.605c1.601-0.282,3.415-2.316,5.052-4.915c0.264,0.086,0.571,0.098,0.955,0.03
		c2.079-0.367,3.545-2.176,4.715-4.592c0.037-0.204-0.619-0.353-0.812-0.319c-1.015,2.059-2.092,3.602-3.53,3.855
		c-0.289,0.051-0.5,0.022-0.707-0.04c2.004-3.454,3.646-7.668,4.108-10.29c0.336-1.906-0.048-2.895-1.327-2.668
		c-1.855,0.326-3.861,4.672-4.527,8.449c-0.289,1.635-0.303,3.121,0.006,4.188c-1.181,2.121-2.285,3.635-2.893,3.743
		c-0.48,0.084-0.546-0.598-0.335-1.788c0.42-2.383,1.912-6.802,3.565-11.613l-2.687,0.475c-0.868,2.462-1.76,5.06-2.411,7.352
		c-1.553,4.232-3.084,6.415-3.757,6.533c-0.288,0.051-0.306-0.375-0.174-1.123c0.378-2.146,2.069-6.995,3.911-12.333L152.887,23.185
		z M142.348,37.875c-0.102,0.051-0.166,0.062-0.262,0.08c-0.8,0.141-1.066-1.165-0.712-3.173c0.078-0.443,0.2-0.959,0.354-1.481
		c0.16,1.555,0.784,2.764,2.031,3.072C143.255,37.122,142.787,37.666,142.348,37.875 M145.92,26.228
		c0.064-0.011,0.166-0.062,0.23-0.073c0.896-0.158,1.043,0.938,0.773,2.47c-0.318,1.804-1.219,4.271-2.241,6.2
		c-1.361-0.189-1.561-1.869-1.237-3.707C143.83,28.938,144.956,26.596,145.92,26.228 M150.29,30.801
		c-0.858,1.701-1.776,2.688-2.68,3.243c0.68-1.571,1.37-3.375,1.664-5.043c0.541-3.064-0.117-5.488-2.261-5.11
		c-2.271,0.4-4.017,2.918-4.831,5.603l-1.098-0.104c-0.994,2.122-1.724,4.328-2.06,6.235c-0.546,3.098-0.019,5.379,2.189,4.99
		c2.047-0.361,3.936-2.112,5.461-4.789c1.639-0.851,3.33-2.533,4.426-4.706C151.137,30.916,150.482,30.767,150.29,30.801
		 M152.09,14.816c0.086-0.312,0.133-0.584,0.188-0.891c0.54-3.063-0.411-4.875-3.354-4.355c-5.056,0.891-8.559,8.105-12.887,20.348
		c-0.39,0.101-0.78,0.203-1.196,0.275c-1.12,0.198-2.311,0.276-3.515,0.423c1.628-4.84,2.984-9.366,5.114-14.591
		c1.078-1.015,1.948-2.256,2.486-3.901l-3.039,0.008c-0.696,1.311-1.334,2.644-1.952,4.039c-2.587,1.313-5.83,2.479-8.126,4.071
		c-2.257,1.553-3.541,3.56-3.841,5.263c-0.426,2.417,1.115,4.223,4.666,3.597l0.792-2.911c-1.695,0.3-2.975-0.003-2.681-1.671
		c0.559-3.166,4.579-4.172,8.204-6.097c-1.726,4.163-3.238,8.52-4.676,12.633c-1.413,0.282-2.735,0.746-3.963,1.557l0.502,2.253
		c0.87-0.715,1.761-1.201,2.667-1.592l-0.186,0.527c-2.91,8.067-6.908,16.325-13.018,17.402c-4.83,0.852-6.193-2.668-5.473-6.753
		c0.798-4.528,4.172-9.773,8.267-10.495c2.303-0.406,3.242,0.944,2.87,3.056c-0.264,1.498-1.184,3.375-2.738,5.331l2,1.495
		c1.775-2.16,2.825-4.423,3.167-6.364c0.607-3.438-0.969-5.931-4.807-5.254c-6.11,1.077-10.524,7.298-11.472,12.676
		c-0.87,4.938,1.2,9.189,7.63,8.057c9.181-1.619,13.567-10.672,16.579-19.317l0.44-1.265c1.056-0.187,2.099-0.305,3.155-0.49
		c0.544-0.096,1.062-0.22,1.58-0.345c-1.829,5.27-3.807,11.391-6.147,18.335l3.679-0.649c3.42-12.543,10.223-36.535,15.278-37.426
		c0.799-0.141,1.417,0.047,1.068,2.021c-0.071,0.409-0.193,0.926-0.365,1.55L152.09,14.816z"/>
	<path clip-path="url(#SVGID_2_)" fill="#C3132A" d="M123.11,113.857h2.741v6.833h-2.741V113.857z M126.316,134.1h3.796v-9.235
		c0-1.056-0.633-2.236-1.772-2.489c0.76-0.21,1.308-1.012,1.308-2.066v-7.718c0-1.35-1.097-2.531-2.531-2.531h-7.802v24.04h3.795
		v-9.615h3.206V134.1z M97.552,110.06v21.553c0,1.35,1.181,2.487,2.53,2.487h5.736c1.392,0,2.531-1.138,2.531-2.487V110.06h-3.796
		v20.245h-3.205V110.06H97.552z M82.79,130.305h-3.205v-16.448h3.205V130.305z M75.789,131.613c0,1.35,1.181,2.487,2.53,2.487h5.736
		c1.392,0,2.531-1.138,2.531-2.487v-19.021c0-1.35-1.097-2.531-2.531-2.531h-5.736c-1.349,0-2.53,1.182-2.53,2.531V131.613z
		 M58.117,134.1h3.796v-8.013l4.555-16.027h-3.923l-2.53,10.122l-2.531-10.122h-3.922l4.555,16.027V134.1z M21.762,127.733v3.88
		c0,1.35,1.181,2.487,2.53,2.487h5.736c1.392,0,2.531-1.138,2.531-2.487v-9.152c0-1.35-1.097-2.531-2.531-2.531h-4.471v-6.072h3.206
		v2.361h3.796v-3.67c0-1.434-1.097-2.488-2.531-2.488h-5.736c-1.518,0-2.53,1.055-2.53,2.531v8.646c0,1.265,1.054,2.487,2.53,2.487
		h4.471v6.58h-3.206v-2.572H21.762z M7,134.1h3.796v-24.041H7V134.1z"/>
</g>
<text transform="matrix(1 0 0 1 130.1118 134.1011)" fill="#C3132A" font-family="'Duke-Fill'" font-size="42.1764"> </text>
<path fill="#411312" d="M100.067,138.1l7.543,32.266l-7.543,31.356h8.452l5.454-22.086l5.453,22.086h8.453l-7.635-31.266
	l6.907-32.356h-8.634l-4.544,23.904l-5.454-23.904H100.067z M89.888,193.542H76.982v-21.541h8.635v-8.18h-8.635V146.28h12.27v-8.18
	h-20.45v63.622h21.086V193.542z M39.264,201.722h17.815v-8.18h-9.635V138.1h-8.18V201.722z M15.18,201.722v-29.721h8.634v-8.18
	H15.18V146.28h12.27v-8.18H7v63.622H15.18z"/>
<line fill="none" stroke="#C3132A" stroke-width="4.085" stroke-linecap="round" stroke-linejoin="round" stroke-dasharray="0,12.41" x1="270.141" y1="209.793" x2="15.731" y2="209.793"/>
<g>
	<defs>
		<rect id="SVGID_3_" x="-2" y="2.918" width="291.955" height="216.163"/>
	</defs>
	<clipPath id="SVGID_4_">
		<use xlink:href="#SVGID_3_"  overflow="visible"/>
	</clipPath>
	
		<path clip-path="url(#SVGID_4_)" fill="none" stroke="#C3132A" stroke-width="4.085" stroke-linecap="round" stroke-linejoin="round" d="
		M9.527,209.793L9.527,209.793 M282.551,209.793L282.551,209.793"/>
</g>
<image overflow="visible" width="511" height="321" xlink:href="../images/flexcard.png"  transform="matrix(0.2917 0 0 0.2917 136.4355 108.082)">
</image>
</svg>
